{
copyright = "L\U00E9a Fournier";
date = "2018-05-02 12:49:49 +0000";
designer = "L\U00E9a Fournier";
designerURL = www.leafournier.com;
familyName = "47 Degrees Gotha";
fontMaster = (
{
ascender = 1000;
capHeight = 700;
descender = "-500";
id = "5BFD6B79-E671-4341-8675-5B48D052A318";
xHeight = 500;
}
);
glyphs = (
{
glyphname = A;
lastChange = "2018-05-09 13:37:33 +0000";
layers = (
{
layerId = "5BFD6B79-E671-4341-8675-5B48D052A318";
name = Regular;
paths = (
{
closed = 1;
nodes = (
"75 0 LINE",
"175 0 LINE",
"175 372 LINE",
"275 342 LINE",
"275 0 LINE",
"375 0 LINE",
"375 900 LINE",
"75 900 LINE"
);
},
{
closed = 1;
nodes = (
"175 478 LINE",
"176 898 LINE",
"275 866 LINE",
"275 447 LINE"
);
}
);
width = 450;
}
);
unicode = 0041;
},
{
glyphname = Aacute;
layers = (
{
layerId = "5BFD6B79-E671-4341-8675-5B48D052A318";
name = Regular;
paths = (
{
closed = 1;
nodes = (
"75 0 LINE",
"175 0 LINE",
"175 372 LINE",
"275 342 LINE",
"275 0 LINE",
"375 0 LINE",
"375 900 LINE",
"75 900 LINE"
);
},
{
closed = 1;
nodes = (
"175 479 LINE",
"176 898 LINE",
"275 867 LINE",
"275 447 LINE"
);
},
{
closed = 0;
nodes = (
"286 968 LINE"
);
},
{
closed = 1;
nodes = (
"286 968 LINE",
"347 1158 LINE",
"252 1189 LINE",
"191 998 LINE"
);
}
);
width = 450;
}
);
unicode = 00C1;
},
{
glyphname = Acircumflex;
layers = (
{
layerId = "5BFD6B79-E671-4341-8675-5B48D052A318";
name = Regular;
paths = (
{
closed = 1;
nodes = (
"76 0 LINE",
"176 0 LINE",
"176 371 LINE",
"276 341 LINE",
"276 0 LINE",
"376 0 LINE",
"376 899 LINE",
"76 899 LINE"
);
},
{
closed = 1;
nodes = (
"176 478 LINE",
"177 897 LINE",
"276 866 LINE",
"276 446 LINE"
);
},
{
closed = 1;
nodes = (
"192 997 LINE",
"223 1093 LINE",
"318 1062 LINE",
"348 1157 LINE",
"158 1218 LINE",
"97 1028 LINE"
);
}
);
width = 450;
}
);
unicode = 00C2;
},
{
glyphname = Adieresis;
layers = (
{
layerId = "5BFD6B79-E671-4341-8675-5B48D052A318";
name = Regular;
paths = (
{
closed = 1;
nodes = (
"75 0 LINE",
"175 0 LINE",
"175 372 LINE",
"275 342 LINE",
"275 0 LINE",
"375 0 LINE",
"375 900 LINE",
"75 900 LINE"
);
},
{
closed = 1;
nodes = (
"175 479 LINE",
"176 898 LINE",
"275 867 LINE",
"275 447 LINE"
);
},
{
closed = 1;
nodes = (
"75 1100 LINE",
"75 1200 LINE",
"175 1200 LINE",
"175 1100 LINE"
);
},
{
closed = 1;
nodes = (
"275 1100 LINE",
"275 1200 LINE",
"375 1200 LINE",
"375 1100 LINE"
);
}
);
width = 450;
}
);
unicode = 00C4;
},
{
glyphname = Agrave;
lastChange = "2018-05-09 13:37:37 +0000";
layers = (
{
layerId = "5BFD6B79-E671-4341-8675-5B48D052A318";
name = Regular;
paths = (
{
closed = 1;
nodes = (
"75 0 LINE",
"175 0 LINE",
"175 372 LINE",
"275 342 LINE",
"275 0 LINE",
"375 0 LINE",
"375 900 LINE",
"75 900 LINE"
);
},
{
closed = 1;
nodes = (
"175 479 LINE",
"176 898 LINE",
"275 867 LINE",
"275 447 LINE"
);
},
{
closed = 1;
nodes = (
"96 1029 LINE",
"286 968 LINE",
"317 1063 LINE",
"126 1124 LINE"
);
}
);
width = 450;
}
);
unicode = 00C0;
},
{
glyphname = AE;
lastChange = "2018-05-14 09:01:32 +0000";
layers = (
{
layerId = "5BFD6B79-E671-4341-8675-5B48D052A318";
name = Regular;
paths = (
{
closed = 1;
nodes = (
"75 0 LINE",
"175 0 LINE",
"175 372 LINE",
"275 342 LINE",
"275 0 LINE",
"375 0 LINE",
"375 900 LINE",
"75 900 LINE"
);
},
{
closed = 1;
nodes = (
"175 478 LINE",
"176 898 LINE",
"275 866 LINE",
"275 447 LINE"
);
},
{
closed = 1;
nodes = (
"575 200 LINE",
"475 200 LINE",
"475 25 LINE",
"375 59 LINE",
"375 500 LINE",
"475 500 LINE",
"475 551 LINE",
"375 583 LINE",
"376 898 LINE",
"475 866 LINE",
"475 700 LINE",
"575 700 LINE",
"575 900 LINE",
"275 900 LINE",
"275 0 LINE",
"575 0 LINE",
"575 100 LINE"
);
}
);
width = 650;
}
);
unicode = 00C6;
},
{
glyphname = B;
lastChange = "2018-05-09 13:37:42 +0000";
layers = (
{
layerId = "5BFD6B79-E671-4341-8675-5B48D052A318";
name = Regular;
paths = (
{
closed = 1;
nodes = (
"175 900 LINE",
"75 900 LINE",
"75 0 LINE",
"375 0 LINE",
"375 500 LINE",
"175 500 LINE"
);
},
{
closed = 1;
nodes = (
"175 100 LINE",
"175 478 LINE",
"275 446 LINE",
"275 100 LINE"
);
},
{
closed = 1;
nodes = (
"375 519 LINE",
"355 526 LINE",
"375 588 LINE",
"375 900 LINE",
"175 900 LINE",
"275 866 LINE",
"275 499 LINE",
"375 500 LINE"
);
}
);
width = 450;
}
);
unicode = 0042;
},
{
glyphname = C;
lastChange = "2018-05-09 13:37:46 +0000";
layers = (
{
layerId = "5BFD6B79-E671-4341-8675-5B48D052A318";
name = Regular;
paths = (
{
closed = 1;
nodes = (
"75 0 LINE",
"375 0 LINE",
"375 200 LINE",
"275 200 LINE",
"275 27 LINE",
"175 59 LINE",
"175 899 LINE",
"275 866 LINE",
"275 700 LINE",
"375 700 LINE",
"375 900 LINE",
"75 900 LINE"
);
}
);
width = 450;
}
);
unicode = 0043;
},
{
glyphname = D;
lastChange = "2018-05-09 13:37:51 +0000";
layers = (
{
layerId = "5BFD6B79-E671-4341-8675-5B48D052A318";
name = Regular;
paths = (
{
closed = 1;
nodes = (
"75 900 LINE",
"75 0 LINE",
"292 0 LINE",
"375 259 LINE",
"375 834 LINE",
"175 900 LINE"
);
},
{
closed = 1;
nodes = (
"203 50 LINE",
"175 59 LINE",
"175 793 LINE",
"275 761 LINE",
"275 273 LINE"
);
}
);
width = 450;
}
);
unicode = 0044;
},
{
glyphname = E;
lastChange = "2018-05-09 13:37:55 +0000";
layers = (
{
layerId = "5BFD6B79-E671-4341-8675-5B48D052A318";
name = Regular;
paths = (
{
closed = 1;
nodes = (
"375 0 LINE",
"75 0 LINE",
"75 900 LINE",
"375 900 LINE",
"375 700 LINE",
"275 700 LINE",
"275 866 LINE",
"176 898 LINE",
"175 583 LINE",
"275 551 LINE",
"275 500 LINE",
"175 500 LINE",
"175 59 LINE",
"275 25 LINE",
"275 200 LINE",
"375 200 LINE",
"375 100 LINE"
);
}
);
width = 450;
}
);
unicode = 0045;
},
{
glyphname = Eacute;
lastChange = "2018-05-09 13:38:00 +0000";
layers = (
{
layerId = "5BFD6B79-E671-4341-8675-5B48D052A318";
name = Regular;
paths = (
{
closed = 1;
nodes = (
"375 0 LINE",
"75 0 LINE",
"75 900 LINE",
"375 900 LINE",
"375 700 LINE",
"275 700 LINE",
"275 866 LINE",
"176 898 LINE",
"175 584 LINE",
"275 552 LINE",
"275 500 LINE",
"175 500 LINE",
"175 59 LINE",
"275 25 LINE",
"275 200 LINE",
"375 200 LINE",
"375 100 LINE"
);
},
{
closed = 1;
nodes = (
"286 968 LINE",
"347 1158 LINE",
"252 1189 LINE",
"191 998 LINE"
);
}
);
width = 450;
}
);
unicode = 00C9;
},
{
glyphname = Ecircumflex;
layers = (
{
layerId = "5BFD6B79-E671-4341-8675-5B48D052A318";
name = Regular;
paths = (
{
closed = 1;
nodes = (
"375 0 LINE",
"75 0 LINE",
"75 900 LINE",
"375 900 LINE",
"375 700 LINE",
"275 700 LINE",
"275 866 LINE",
"176 898 LINE",
"175 584 LINE",
"275 552 LINE",
"275 500 LINE",
"175 500 LINE",
"175 59 LINE",
"275 25 LINE",
"275 200 LINE",
"375 200 LINE",
"375 100 LINE"
);
},
{
closed = 1;
nodes = (
"192 997 LINE",
"223 1093 LINE",
"318 1062 LINE",
"348 1157 LINE",
"158 1218 LINE",
"97 1028 LINE"
);
}
);
width = 450;
}
);
unicode = 00CA;
},
{
glyphname = Edieresis;
lastChange = "2018-05-09 13:38:07 +0000";
layers = (
{
layerId = "5BFD6B79-E671-4341-8675-5B48D052A318";
name = Regular;
paths = (
{
closed = 1;
nodes = (
"375 0 LINE",
"75 0 LINE",
"75 900 LINE",
"375 900 LINE",
"375 700 LINE",
"275 700 LINE",
"275 866 LINE",
"176 898 LINE",
"175 583 LINE",
"275 552 LINE",
"275 500 LINE",
"175 500 LINE",
"175 59 LINE",
"275 25 LINE",
"275 200 LINE",
"375 200 LINE",
"375 100 LINE"
);
},
{
closed = 1;
nodes = (
"75 1100 LINE",
"75 1200 LINE",
"175 1200 LINE",
"175 1100 LINE"
);
},
{
closed = 1;
nodes = (
"275 1100 LINE",
"275 1200 LINE",
"375 1200 LINE",
"375 1100 LINE"
);
}
);
width = 450;
}
);
unicode = 00CB;
},
{
glyphname = Egrave;
lastChange = "2018-05-09 13:38:13 +0000";
layers = (
{
layerId = "5BFD6B79-E671-4341-8675-5B48D052A318";
name = Regular;
paths = (
{
closed = 1;
nodes = (
"375 0 LINE",
"75 0 LINE",
"75 900 LINE",
"375 900 LINE",
"375 700 LINE",
"275 700 LINE",
"275 867 LINE",
"176 898 LINE",
"175 584 LINE",
"275 552 LINE",
"275 500 LINE",
"175 500 LINE",
"175 59 LINE",
"275 26 LINE",
"275 200 LINE",
"375 200 LINE",
"375 100 LINE"
);
},
{
closed = 1;
nodes = (
"317 1063 LINE",
"126 1124 LINE",
"96 1029 LINE",
"286 968 LINE"
);
}
);
width = 450;
}
);
unicode = 00C8;
},
{
glyphname = F;
lastChange = "2018-05-09 13:38:59 +0000";
layers = (
{
layerId = "5BFD6B79-E671-4341-8675-5B48D052A318";
name = Regular;
paths = (
{
closed = 1;
nodes = (
"75 900 LINE",
"375 900 LINE",
"375 700 LINE",
"275 700 LINE",
"275 866 LINE",
"176 898 LINE",
"175 601 LINE",
"275 600 LINE",
"275 500 LINE",
"175 500 LINE",
"175 0 LINE",
"75 0 LINE"
);
}
);
width = 450;
}
);
unicode = 0046;
},
{
glyphname = G;
lastChange = "2018-05-09 13:38:23 +0000";
layers = (
{
layerId = "5BFD6B79-E671-4341-8675-5B48D052A318";
name = Regular;
paths = (
{
closed = 1;
nodes = (
"375 900 LINE",
"375 800 LINE",
"275 800 LINE",
"275 866 LINE",
"175 898 LINE",
"175 60 LINE",
"275 27 LINE",
"275 200 LINE",
"251 201 LINE",
"283 301 LINE",
"375 300 LINE",
"375 0 LINE",
"75 0 LINE",
"75 900 LINE"
);
}
);
width = 450;
}
);
unicode = 0047;
},
{
glyphname = H;
lastChange = "2018-05-09 13:38:29 +0000";
layers = (
{
layerId = "5BFD6B79-E671-4341-8675-5B48D052A318";
name = Regular;
paths = (
{
closed = 1;
nodes = (
"175 900 LINE",
"175 500 LINE",
"375 500 LINE",
"375 0 LINE",
"275 0 LINE",
"275 447 LINE",
"175 478 LINE",
"175 0 LINE",
"75 0 LINE",
"76 900 LINE"
);
},
{
closed = 1;
nodes = (
"375 900 LINE",
"375 500 LINE",
"275 499 LINE",
"275 900 LINE"
);
}
);
width = 450;
}
);
unicode = 0048;
},
{
glyphname = I;
lastChange = "2018-05-09 13:38:33 +0000";
layers = (
{
layerId = "5BFD6B79-E671-4341-8675-5B48D052A318";
name = Regular;
paths = (
{
closed = 1;
nodes = (
"75 0 LINE",
"75 900 LINE",
"175 900 LINE",
"175 0 LINE"
);
}
);
width = 250;
}
);
unicode = 0049;
},
{
glyphname = Iacute;
layers = (
{
layerId = "5BFD6B79-E671-4341-8675-5B48D052A318";
name = Regular;
paths = (
{
closed = 1;
nodes = (
"75 0 LINE",
"75 900 LINE",
"175 900 LINE",
"175 0 LINE"
);
},
{
closed = 1;
nodes = (
"199 968 LINE",
"260 1158 LINE",
"165 1189 LINE",
"104 998 LINE"
);
}
);
width = 260;
}
);
unicode = 00CD;
},
{
glyphname = Icircumflex;
layers = (
{
layerId = "5BFD6B79-E671-4341-8675-5B48D052A318";
name = Regular;
paths = (
{
closed = 1;
nodes = (
"93 999 LINE",
"123 1094 LINE",
"218 1063 LINE",
"249 1159 LINE",
"58 1219 LINE",
"-3 1029 LINE"
);
},
{
closed = 1;
nodes = (
"77 0 LINE",
"77 901 LINE",
"177 901 LINE",
"177 0 LINE"
);
}
);
width = 250;
}
);
unicode = 00CE;
},
{
glyphname = Idieresis;
layers = (
{
layerId = "5BFD6B79-E671-4341-8675-5B48D052A318";
name = Regular;
paths = (
{
closed = 1;
nodes = (
"75 0 LINE",
"75 900 LINE",
"175 900 LINE",
"175 0 LINE"
);
},
{
closed = 1;
nodes = (
"-26 1000 LINE",
"-26 1100 LINE",
"74 1100 LINE",
"74 1000 LINE"
);
},
{
closed = 1;
nodes = (
"174 1000 LINE",
"174 1100 LINE",
"274 1100 LINE",
"274 1000 LINE"
);
}
);
width = 248;
}
);
unicode = 00CF;
},
{
glyphname = Igrave;
layers = (
{
layerId = "5BFD6B79-E671-4341-8675-5B48D052A318";
name = Regular;
paths = (
{
closed = 1;
nodes = (
"75 0 LINE",
"75 900 LINE",
"175 900 LINE",
"175 0 LINE"
);
},
{
closed = 1;
nodes = (
"-6 1029 LINE",
"184 968 LINE",
"215 1063 LINE",
"24 1124 LINE"
);
}
);
width = 250;
}
);
unicode = 00CC;
},
{
glyphname = J;
lastChange = "2018-05-09 13:38:37 +0000";
layers = (
{
layerId = "5BFD6B79-E671-4341-8675-5B48D052A318";
name = Regular;
paths = (
{
closed = 1;
nodes = (
"75 0 LINE",
"375 0 LINE",
"375 900 LINE",
"275 900 LINE",
"275 27 LINE",
"175 59 LINE",
"175 164 LINE",
"75 196 LINE"
);
}
);
width = 450;
}
);
unicode = 004A;
},
{
glyphname = K;
lastChange = "2018-05-09 13:38:42 +0000";
layers = (
{
layerId = "5BFD6B79-E671-4341-8675-5B48D052A318";
name = Regular;
paths = (
{
closed = 1;
nodes = (
"75 900 LINE",
"175 900 LINE",
"175 500 LINE",
"175 500 LINE",
"243 500 LINE",
"321 747 LINE",
"416 716 LINE",
"348 501 LINE",
"375 500 LINE",
"375 0 LINE",
"275 0 LINE",
"275 447 LINE",
"175 478 LINE",
"175 0 LINE",
"75 0 LINE"
);
}
);
width = 491;
}
);
unicode = 004B;
},
{
glyphname = L;
lastChange = "2018-05-09 13:38:46 +0000";
layers = (
{
layerId = "5BFD6B79-E671-4341-8675-5B48D052A318";
name = Regular;
paths = (
{
closed = 1;
nodes = (
"75 0 LINE",
"375 0 LINE",
"375 200 LINE",
"275 200 LINE",
"275 27 LINE",
"175 58 LINE",
"175 898 LINE",
"76 900 LINE"
);
}
);
width = 450;
}
);
unicode = 004C;
},
{
glyphname = M;
lastChange = "2018-05-09 13:39:12 +0000";
layers = (
{
layerId = "5BFD6B79-E671-4341-8675-5B48D052A318";
name = Regular;
paths = (
{
closed = 1;
nodes = (
"75 900 LINE",
"275 900 LINE",
"575 900 LINE",
"575 0 LINE",
"475 0 LINE",
"475 800 LINE",
"375 800 LINE",
"375 237 LINE",
"275 268 LINE",
"275 800 LINE",
"177 800 LINE",
"175 0 LINE",
"75 0 LINE"
);
}
);
width = 650;
}
);
unicode = 004D;
},
{
glyphname = N;
lastChange = "2018-05-09 13:39:17 +0000";
layers = (
{
layerId = "5BFD6B79-E671-4341-8675-5B48D052A318";
name = Regular;
paths = (
{
closed = 1;
nodes = (
"75 930 LINE",
"275 866 LINE",
"275 900 LINE",
"375 900 LINE",
"375 0 LINE",
"275 0 LINE",
"275 762 LINE",
"175 794 LINE",
"175 0 LINE",
"75 0 LINE"
);
}
);
width = 450;
}
);
unicode = 004E;
},
{
glyphname = O;
lastChange = "2018-05-09 13:39:23 +0000";
layers = (
{
layerId = "5BFD6B79-E671-4341-8675-5B48D052A318";
name = Regular;
paths = (
{
closed = 1;
nodes = (
"75 0 LINE",
"375 0 LINE",
"375 900 LINE",
"75 900 LINE"
);
},
{
closed = 1;
nodes = (
"175 59 LINE",
"175 899 LINE",
"275 866 LINE",
"275 27 LINE"
);
}
);
width = 450;
}
);
unicode = 004F;
},
{
glyphname = Oacute;
layers = (
{
layerId = "5BFD6B79-E671-4341-8675-5B48D052A318";
name = Regular;
paths = (
{
closed = 1;
nodes = (
"75 0 LINE",
"375 0 LINE",
"375 900 LINE",
"75 900 LINE"
);
},
{
closed = 1;
nodes = (
"175 58 LINE",
"175 898 LINE",
"275 866 LINE",
"275 26 LINE"
);
},
{
closed = 1;
nodes = (
"286 968 LINE",
"347 1158 LINE",
"252 1189 LINE",
"191 998 LINE"
);
}
);
width = 450;
}
);
unicode = 00D3;
},
{
glyphname = Ocircumflex;
layers = (
{
layerId = "5BFD6B79-E671-4341-8675-5B48D052A318";
name = Regular;
paths = (
{
closed = 1;
nodes = (
"75 0 LINE",
"375 0 LINE",
"375 900 LINE",
"75 900 LINE"
);
},
{
closed = 1;
nodes = (
"175 58 LINE",
"175 898 LINE",
"275 866 LINE",
"275 26 LINE"
);
},
{
closed = 1;
nodes = (
"192 997 LINE",
"223 1093 LINE",
"318 1062 LINE",
"348 1157 LINE",
"158 1218 LINE",
"97 1028 LINE"
);
}
);
width = 450;
}
);
unicode = 00D4;
},
{
glyphname = Odieresis;
lastChange = "2018-05-09 13:39:28 +0000";
layers = (
{
layerId = "5BFD6B79-E671-4341-8675-5B48D052A318";
name = Regular;
paths = (
{
closed = 1;
nodes = (
"75 0 LINE",
"375 0 LINE",
"375 900 LINE",
"75 900 LINE"
);
},
{
closed = 1;
nodes = (
"175 58 LINE",
"175 898 LINE",
"275 866 LINE",
"275 26 LINE"
);
},
{
closed = 1;
nodes = (
"75 1000 LINE",
"75 1100 LINE",
"175 1100 LINE",
"175 1000 LINE"
);
},
{
closed = 1;
nodes = (
"275 1000 LINE",
"275 1100 LINE",
"375 1100 LINE",
"375 1000 LINE"
);
}
);
width = 450;
}
);
unicode = 00D6;
},
{
glyphname = Ograve;
layers = (
{
layerId = "5BFD6B79-E671-4341-8675-5B48D052A318";
name = Regular;
paths = (
{
closed = 1;
nodes = (
"75 0 LINE",
"375 0 LINE",
"375 900 LINE",
"75 900 LINE"
);
},
{
closed = 1;
nodes = (
"175 58 LINE",
"175 898 LINE",
"275 866 LINE",
"275 26 LINE"
);
},
{
closed = 1;
nodes = (
"96 1029 LINE",
"286 968 LINE",
"317 1063 LINE",
"126 1124 LINE"
);
}
);
width = 450;
}
);
unicode = 00D2;
},
{
glyphname = OE;
lastChange = "2018-05-09 13:39:33 +0000";
layers = (
{
layerId = "5BFD6B79-E671-4341-8675-5B48D052A318";
name = Regular;
paths = (
{
closed = 1;
nodes = (
"575 901 LINE",
"275 901 LINE",
"275 900 LINE",
"75 900 LINE",
"75 0 LINE",
"375 0 LINE",
"375 1 LINE",
"575 1 LINE",
"575 101 LINE",
"575 201 LINE",
"475 201 LINE",
"475 26 LINE",
"375 59 LINE",
"375 501 LINE",
"475 501 LINE",
"475 552 LINE",
"375 584 LINE",
"375 648 LINE",
"375 898 LINE",
"475 867 LINE",
"475 701 LINE",
"575 701 LINE"
);
},
{
closed = 1;
nodes = (
"274 866 LINE",
"275 26 LINE",
"175 58 LINE",
"175 898 LINE"
);
}
);
width = 650;
}
);
unicode = 0152;
},
{
glyphname = P;
lastChange = "2018-05-09 13:39:37 +0000";
layers = (
{
layerId = "5BFD6B79-E671-4341-8675-5B48D052A318";
name = Regular;
paths = (
{
closed = 1;
nodes = (
"75 0 LINE",
"175 0 LINE",
"175 398 LINE",
"375 400 LINE",
"375 900 LINE",
"75 900 LINE"
);
},
{
closed = 1;
nodes = (
"175 492 LINE",
"175 898 LINE",
"275 866 LINE",
"275 461 LINE"
);
}
);
width = 450;
}
);
unicode = 0050;
},
{
glyphname = Q;
lastChange = "2018-05-09 13:39:41 +0000";
layers = (
{
layerId = "5BFD6B79-E671-4341-8675-5B48D052A318";
name = Regular;
paths = (
{
closed = 1;
nodes = (
"375 0 LINE",
"375 900 LINE",
"75 900 LINE",
"75 0 LINE",
"188 0 LINE",
"173 -46 LINE",
"364 -107 LINE",
"394 -12 LINE",
"359 0 LINE"
);
},
{
closed = 1;
nodes = (
"175 898 LINE",
"275 866 LINE",
"275 26 LINE",
"175 58 LINE"
);
}
);
width = 469;
}
);
unicode = 0051;
},
{
glyphname = R;
lastChange = "2018-05-09 13:39:45 +0000";
layers = (
{
layerId = "5BFD6B79-E671-4341-8675-5B48D052A318";
name = Regular;
paths = (
{
closed = 1;
nodes = (
"375 900 LINE",
"75 900 LINE",
"75 0 LINE",
"175 0 LINE",
"175 400 LINE",
"275 400 LINE",
"275 0 LINE",
"375 0 LINE",
"375 415 LINE",
"325 431 LINE",
"347 499 LINE",
"375 583 LINE"
);
},
{
closed = 1;
nodes = (
"175 478 LINE",
"175 898 LINE",
"275 866 LINE",
"275 447 LINE"
);
}
);
width = 450;
}
);
unicode = 0052;
},
{
glyphname = S;
lastChange = "2018-05-09 13:39:50 +0000";
layers = (
{
layerId = "5BFD6B79-E671-4341-8675-5B48D052A318";
name = Regular;
paths = (
{
closed = 1;
nodes = (
"376 729 LINE",
"276 757 LINE",
"276 866 LINE",
"176 898 LINE",
"178 583 LINE",
"376 520 LINE",
"376 0 LINE",
"76 0 LINE",
"76 196 LINE",
"176 164 LINE",
"176 58 LINE",
"276 27 LINE",
"276 447 LINE",
"75 512 LINE",
"76 900 LINE",
"376 900 LINE"
);
}
);
width = 451;
}
);
unicode = 0053;
},
{
glyphname = T;
lastChange = "2018-05-09 13:39:53 +0000";
layers = (
{
layerId = "5BFD6B79-E671-4341-8675-5B48D052A318";
name = Regular;
paths = (
{
closed = 1;
nodes = (
"75 800 LINE",
"175 800 LINE",
"175 0 LINE",
"275 0 LINE",
"275 800 LINE",
"375 800 LINE",
"375 900 LINE",
"75 900 LINE"
);
}
);
width = 450;
}
);
unicode = 0054;
},
{
glyphname = U;
lastChange = "2018-05-09 13:39:58 +0000";
layers = (
{
layerId = "5BFD6B79-E671-4341-8675-5B48D052A318";
name = Regular;
paths = (
{
closed = 1;
nodes = (
"75 0 LINE",
"375 0 LINE",
"375 900 LINE",
"275 900 LINE",
"275 27 LINE",
"175 59 LINE",
"175 900 LINE",
"75 900 LINE"
);
}
);
width = 450;
}
);
unicode = 0055;
},
{
glyphname = Uacute;
layers = (
{
layerId = "5BFD6B79-E671-4341-8675-5B48D052A318";
name = Regular;
paths = (
{
closed = 1;
nodes = (
"75 0 LINE",
"375 0 LINE",
"375 900 LINE",
"275 900 LINE",
"275 27 LINE",
"175 59 LINE",
"175 900 LINE",
"75 900 LINE"
);
},
{
closed = 1;
nodes = (
"286 968 LINE",
"347 1158 LINE",
"252 1189 LINE",
"191 998 LINE"
);
}
);
width = 450;
}
);
unicode = 00DA;
},
{
glyphname = Ucircumflex;
layers = (
{
layerId = "5BFD6B79-E671-4341-8675-5B48D052A318";
name = Regular;
paths = (
{
closed = 1;
nodes = (
"75 0 LINE",
"375 0 LINE",
"375 900 LINE",
"275 900 LINE",
"275 27 LINE",
"175 59 LINE",
"175 900 LINE",
"75 900 LINE"
);
},
{
closed = 1;
nodes = (
"192 997 LINE",
"223 1093 LINE",
"318 1062 LINE",
"348 1157 LINE",
"158 1218 LINE",
"97 1028 LINE"
);
}
);
width = 450;
}
);
unicode = 00DB;
},
{
glyphname = Udieresis;
layers = (
{
layerId = "5BFD6B79-E671-4341-8675-5B48D052A318";
name = Regular;
paths = (
{
closed = 1;
nodes = (
"75 0 LINE",
"375 0 LINE",
"375 900 LINE",
"275 900 LINE",
"275 27 LINE",
"175 59 LINE",
"175 900 LINE",
"75 900 LINE"
);
},
{
closed = 1;
nodes = (
"75 1100 LINE",
"75 1200 LINE",
"175 1200 LINE",
"175 1100 LINE"
);
},
{
closed = 1;
nodes = (
"275 1100 LINE",
"275 1200 LINE",
"375 1200 LINE",
"375 1100 LINE"
);
}
);
width = 450;
}
);
unicode = 00DC;
},
{
glyphname = Ugrave;
layers = (
{
layerId = "5BFD6B79-E671-4341-8675-5B48D052A318";
name = Regular;
paths = (
{
closed = 1;
nodes = (
"75 0 LINE",
"375 0 LINE",
"375 900 LINE",
"275 900 LINE",
"275 27 LINE",
"175 59 LINE",
"175 900 LINE",
"75 900 LINE"
);
},
{
closed = 1;
nodes = (
"96 1029 LINE",
"286 968 LINE",
"317 1063 LINE",
"126 1124 LINE"
);
}
);
width = 450;
}
);
unicode = 00D9;
},
{
glyphname = V;
lastChange = "2018-05-09 13:40:03 +0000";
layers = (
{
layerId = "5BFD6B79-E671-4341-8675-5B48D052A318";
name = Regular;
paths = (
{
closed = 1;
nodes = (
"75 0 LINE",
"375 0 LINE",
"375 729 LINE",
"275 761 LINE",
"275 27 LINE",
"175 59 LINE",
"175 900 LINE",
"75 900 LINE"
);
}
);
width = 450;
}
);
unicode = 0056;
},
{
glyphname = W;
lastChange = "2018-05-09 13:40:06 +0000";
layers = (
{
layerId = "5BFD6B79-E671-4341-8675-5B48D052A318";
name = Regular;
paths = (
{
closed = 1;
nodes = (
"175 930 LINE",
"176 100 LINE",
"275 101 LINE",
"275 479 LINE",
"375 447 LINE",
"375 100 LINE",
"475 100 LINE",
"475 939 LINE",
"577 907 LINE",
"575 0 LINE",
"75 0 LINE",
"75 962 LINE"
);
}
);
width = 652;
}
);
unicode = 0057;
},
{
glyphname = X;
lastChange = "2018-05-09 13:40:13 +0000";
layers = (
{
layerId = "5BFD6B79-E671-4341-8675-5B48D052A318";
name = Regular;
paths = (
{
closed = 1;
nodes = (
"272 617 LINE",
"272 900 LINE",
"372 900 LINE",
"372 603 LINE",
"467 900 LINE",
"572 900 LINE",
"472 586 LINE",
"472 0 LINE",
"372 0 LINE",
"372 550 LINE",
"357 556 LINE",
"180 0 LINE",
"75 0 LINE"
);
}
);
width = 647;
}
);
unicode = 0058;
},
{
glyphname = Y;
lastChange = "2018-05-09 13:40:17 +0000";
layers = (
{
layerId = "5BFD6B79-E671-4341-8675-5B48D052A318";
name = Regular;
paths = (
{
closed = 1;
nodes = (
"75 394 LINE",
"175 362 LINE",
"175 -11 LINE",
"275 -11 LINE",
"275 331 LINE",
"375 299 LINE",
"375 889 LINE",
"275 889 LINE",
"275 436 LINE",
"175 467 LINE",
"175 889 LINE",
"75 889 LINE"
);
}
);
width = 450;
}
);
unicode = 0059;
},
{
glyphname = Z;
lastChange = "2018-05-09 13:53:07 +0000";
layers = (
{
layerId = "5BFD6B79-E671-4341-8675-5B48D052A318";
name = Regular;
paths = (
{
closed = 1;
nodes = (
"305 800 LINE",
"200 800 LINE",
"200 800 LINE",
"96 800 LINE",
"128 900 LINE",
"443 900 LINE",
"187 100 LINE",
"292 100 LINE",
"292 100 LINE",
"397 100 LINE",
"365 0 LINE",
"50 0 LINE"
);
}
);
width = 518;
}
);
unicode = 005A;
},
{
glyphname = a;
lastChange = "2018-05-14 09:57:08 +0000";
layers = (
{
layerId = "5BFD6B79-E671-4341-8675-5B48D052A318";
name = Regular;
paths = (
{
closed = 1;
nodes = (
"75 400 LINE",
"175 400 LINE",
"175 478 LINE",
"275 446 LINE",
"275 300 LINE",
"75 300 LINE",
"75 0 LINE",
"375 0 LINE",
"375 500 LINE",
"75 500 LINE"
);
},
{
closed = 1;
nodes = (
"175 58 LINE",
"175 270 LINE",
"275 236 LINE",
"275 26 LINE"
);
}
);
width = 450;
}
);
unicode = 0061;
},
{
glyphname = aacute;
layers = (
{
layerId = "5BFD6B79-E671-4341-8675-5B48D052A318";
name = Regular;
paths = (
{
closed = 1;
nodes = (
"75 400 LINE",
"175 400 LINE",
"175 478 LINE",
"275 446 LINE",
"275 300 LINE",
"75 300 LINE",
"75 0 LINE",
"375 0 LINE",
"375 500 LINE",
"75 500 LINE"
);
},
{
closed = 1;
nodes = (
"175 58 LINE",
"175 270 LINE",
"275 236 LINE",
"275 26 LINE"
);
},
{
closed = 1;
nodes = (
"260 556 LINE",
"321 747 LINE",
"226 777 LINE",
"165 586 LINE"
);
}
);
width = 600;
}
);
unicode = 00E1;
},
{
glyphname = acircumflex;
layers = (
{
layerId = "5BFD6B79-E671-4341-8675-5B48D052A318";
name = Regular;
paths = (
{
closed = 1;
nodes = (
"75 400 LINE",
"175 400 LINE",
"175 478 LINE",
"275 446 LINE",
"275 300 LINE",
"75 300 LINE",
"75 0 LINE",
"375 0 LINE",
"375 500 LINE",
"75 500 LINE"
);
},
{
closed = 1;
nodes = (
"175 58 LINE",
"175 270 LINE",
"275 236 LINE",
"275 26 LINE"
);
},
{
closed = 1;
nodes = (
"170 587 LINE",
"75 617 LINE",
"136 807 LINE",
"326 747 LINE",
"296 651 LINE",
"201 682 LINE"
);
}
);
width = 450;
}
);
unicode = 00E2;
},
{
glyphname = adieresis;
lastChange = "2018-05-09 13:41:29 +0000";
layers = (
{
layerId = "5BFD6B79-E671-4341-8675-5B48D052A318";
name = Regular;
paths = (
{
closed = 1;
nodes = (
"75 400 LINE",
"175 400 LINE",
"175 479 LINE",
"275 447 LINE",
"275 300 LINE",
"75 300 LINE",
"75 0 LINE",
"375 0 LINE",
"375 500 LINE",
"75 500 LINE"
);
},
{
closed = 1;
nodes = (
"175 59 LINE",
"175 271 LINE",
"275 237 LINE",
"275 27 LINE"
);
},
{
closed = 1;
nodes = (
"75 600 LINE",
"75 700 LINE",
"175 700 LINE",
"175 600 LINE"
);
},
{
closed = 1;
nodes = (
"275 600 LINE",
"275 700 LINE",
"375 700 LINE",
"375 600 LINE"
);
}
);
width = 450;
}
);
unicode = 00E4;
},
{
glyphname = agrave;
lastChange = "2018-05-09 13:41:52 +0000";
layers = (
{
layerId = "5BFD6B79-E671-4341-8675-5B48D052A318";
name = Regular;
paths = (
{
closed = 1;
nodes = (
"80 400 LINE",
"180 400 LINE",
"180 478 LINE",
"280 446 LINE",
"280 300 LINE",
"80 300 LINE",
"80 0 LINE",
"380 0 LINE",
"380 500 LINE",
"80 500 LINE"
);
},
{
closed = 1;
nodes = (
"180 58 LINE",
"180 270 LINE",
"280 236 LINE",
"280 26 LINE"
);
},
{
closed = 1;
nodes = (
"296 652 LINE",
"106 713 LINE",
"75 618 LINE",
"266 557 LINE"
);
}
);
width = 455;
}
);
unicode = 00E0;
},
{
glyphname = ae;
lastChange = "2018-05-14 09:02:53 +0000";
layers = (
{
layerId = "5BFD6B79-E671-4341-8675-5B48D052A318";
name = Regular;
paths = (
{
closed = 1;
nodes = (
"75 400 LINE",
"175 400 LINE",
"175 478 LINE",
"275 446 LINE",
"275 300 LINE",
"75 300 LINE",
"75 0 LINE",
"375 0 LINE",
"375 500 LINE",
"75 500 LINE"
);
},
{
closed = 1;
nodes = (
"175 58 LINE",
"175 270 LINE",
"275 236 LINE",
"275 26 LINE"
);
},
{
closed = 1;
nodes = (
"575 500 LINE",
"275 500 LINE",
"275 0 LINE",
"575 0 LINE",
"575 204 LINE",
"475 236 LINE",
"475 26 LINE",
"375 58 LINE",
"375 300 LINE",
"575 300 LINE"
);
},
{
closed = 1;
nodes = (
"374 478 LINE",
"475 446 LINE",
"476 341 LINE",
"374 373 LINE"
);
}
);
width = 650;
}
);
unicode = 00E6;
},
{
glyphname = b;
lastChange = "2018-05-09 13:41:44 +0000";
layers = (
{
layerId = "5BFD6B79-E671-4341-8675-5B48D052A318";
name = Regular;
paths = (
{
closed = 1;
nodes = (
"175 899 LINE",
"75 929 LINE",
"75 0 LINE",
"375 0 LINE",
"375 499 LINE",
"175 499 LINE"
);
},
{
closed = 1;
nodes = (
"175 99 LINE",
"175 478 LINE",
"275 446 LINE",
"275 99 LINE"
);
}
);
width = 450;
}
);
unicode = 0062;
},
{
glyphname = c;
lastChange = "2018-05-09 13:41:57 +0000";
layers = (
{
layerId = "5BFD6B79-E671-4341-8675-5B48D052A318";
name = Regular;
paths = (
{
closed = 1;
nodes = (
"75 0 LINE",
"375 0 LINE",
"375 100 LINE",
"275 100 LINE",
"275 26 LINE",
"175 58 LINE",
"175 478 LINE",
"275 446 LINE",
"275 400 LINE",
"375 400 LINE",
"375 500 LINE",
"75 500 LINE"
);
}
);
width = 450;
}
);
unicode = 0063;
},
{
glyphname = ccedilla;
lastChange = "2018-05-14 10:01:08 +0000";
layers = (
{
layerId = "5BFD6B79-E671-4341-8675-5B48D052A318";
name = Regular;
paths = (
{
closed = 1;
nodes = (
"375 500 LINE",
"75 500 LINE",
"75 0 LINE",
"187 0 LINE",
"173 -46 LINE",
"175 -100 LINE",
"261 -100 LINE",
"275 -54 LINE",
"275 0 LINE",
"375 0 LINE",
"375 100 LINE",
"275 100 LINE",
"275 27 LINE",
"175 59 LINE",
"175 478 LINE",
"275 446 LINE",
"275 400 LINE",
"375 400 LINE"
);
}
);
width = 450;
}
);
unicode = 00E7;
},
{
glyphname = d;
lastChange = "2018-05-09 13:42:01 +0000";
layers = (
{
layerId = "5BFD6B79-E671-4341-8675-5B48D052A318";
name = Regular;
paths = (
{
closed = 1;
nodes = (
"275 500 LINE",
"75 500 LINE",
"75 0 LINE",
"375 0 LINE",
"375 939 LINE",
"275 971 LINE"
);
},
{
closed = 1;
nodes = (
"175 100 LINE",
"175 478 LINE",
"275 446 LINE",
"275 100 LINE"
);
}
);
width = 450;
}
);
unicode = 0064;
},
{
glyphname = e;
lastChange = "2018-05-09 13:36:26 +0000";
layers = (
{
layerId = "5BFD6B79-E671-4341-8675-5B48D052A318";
name = Regular;
paths = (
{
closed = 1;
nodes = (
"375 500 LINE",
"75 500 LINE",
"75 0 LINE",
"375 0 LINE",
"375 204 LINE",
"275 236 LINE",
"275 26 LINE",
"175 58 LINE",
"175 300 LINE",
"375 300 LINE"
);
},
{
closed = 1;
nodes = (
"174 478 LINE",
"275 446 LINE",
"276 341 LINE",
"174 373 LINE"
);
}
);
width = 450;
}
);
unicode = 0065;
},
{
glyphname = eacute;
lastChange = "2018-05-09 13:42:08 +0000";
layers = (
{
layerId = "5BFD6B79-E671-4341-8675-5B48D052A318";
name = Regular;
paths = (
{
closed = 1;
nodes = (
"375 500 LINE",
"75 500 LINE",
"75 0 LINE",
"375 0 LINE",
"375 205 LINE",
"275 236 LINE",
"275 27 LINE",
"175 58 LINE",
"175 300 LINE",
"375 300 LINE"
);
},
{
closed = 1;
nodes = (
"174 479 LINE",
"275 446 LINE",
"276 341 LINE",
"174 374 LINE"
);
},
{
closed = 1;
nodes = (
"260 556 LINE",
"321 747 LINE",
"226 777 LINE",
"165 586 LINE"
);
}
);
width = 450;
}
);
unicode = 00E9;
},
{
glyphname = ecircumflex;
lastChange = "2018-05-09 13:42:13 +0000";
layers = (
{
layerId = "5BFD6B79-E671-4341-8675-5B48D052A318";
name = Regular;
paths = (
{
closed = 1;
nodes = (
"381 500 LINE",
"81 500 LINE",
"81 0 LINE",
"381 0 LINE",
"381 205 LINE",
"281 236 LINE",
"281 27 LINE",
"181 59 LINE",
"181 300 LINE",
"381 300 LINE"
);
},
{
closed = 1;
nodes = (
"180 479 LINE",
"281 446 LINE",
"281 341 LINE",
"180 374 LINE"
);
},
{
closed = 1;
nodes = (
"170 587 LINE",
"75 617 LINE",
"136 807 LINE",
"326 747 LINE",
"296 651 LINE",
"201 682 LINE"
);
}
);
width = 456;
}
);
unicode = 00EA;
},
{
glyphname = edieresis;
lastChange = "2018-05-09 13:42:18 +0000";
layers = (
{
layerId = "5BFD6B79-E671-4341-8675-5B48D052A318";
name = Regular;
paths = (
{
closed = 1;
nodes = (
"375 500 LINE",
"75 500 LINE",
"75 0 LINE",
"375 0 LINE",
"375 205 LINE",
"275 236 LINE",
"275 27 LINE",
"175 59 LINE",
"175 300 LINE",
"375 300 LINE"
);
},
{
closed = 1;
nodes = (
"174 479 LINE",
"275 447 LINE",
"276 342 LINE",
"174 374 LINE"
);
},
{
closed = 1;
nodes = (
"75 600 LINE",
"75 700 LINE",
"175 700 LINE",
"175 600 LINE"
);
},
{
closed = 1;
nodes = (
"275 600 LINE",
"275 700 LINE",
"375 700 LINE",
"375 600 LINE"
);
}
);
width = 450;
}
);
unicode = 00EB;
},
{
glyphname = egrave;
lastChange = "2018-05-09 13:42:31 +0000";
layers = (
{
layerId = "5BFD6B79-E671-4341-8675-5B48D052A318";
name = Regular;
paths = (
{
closed = 1;
nodes = (
"381 500 LINE",
"81 500 LINE",
"81 0 LINE",
"381 0 LINE",
"381 205 LINE",
"281 236 LINE",
"281 27 LINE",
"181 59 LINE",
"181 300 LINE",
"381 300 LINE"
);
},
{
closed = 1;
nodes = (
"180 479 LINE",
"281 446 LINE",
"281 341 LINE",
"180 374 LINE"
);
},
{
closed = 1;
nodes = (
"296 651 LINE",
"106 712 LINE",
"75 617 LINE",
"266 556 LINE"
);
}
);
width = 456;
}
);
unicode = 00E8;
},
{
glyphname = f;
lastChange = "2018-05-09 13:37:01 +0000";
layers = (
{
layerId = "5BFD6B79-E671-4341-8675-5B48D052A318";
name = Regular;
paths = (
{
closed = 1;
nodes = (
"75 900 LINE",
"375 900 LINE",
"375 729 LINE",
"275 761 LINE",
"275 800 LINE",
"275 866 LINE",
"175 898 LINE",
"175 688 LINE",
"275 655 LINE",
"275 600 LINE",
"175 600 LINE",
"175 0 LINE",
"75 0 LINE"
);
}
);
width = 325;
}
);
unicode = 0066;
},
{
glyphname = g;
lastChange = "2018-05-09 13:36:01 +0000";
layers = (
{
layerId = "5BFD6B79-E671-4341-8675-5B48D052A318";
name = Regular;
paths = (
{
closed = 1;
nodes = (
"275 0 LINE",
"375 0 LINE",
"375 500 LINE",
"75 500 LINE",
"75 0 LINE",
"175 0 LINE",
"175 -151 LINE",
"275 -183 LINE",
"275 -393 LINE",
"175 -361 LINE",
"175 -257 LINE",
"75 -224 LINE",
"75 -400 LINE",
"375 -400 LINE",
"376 -111 LINE",
"275 -78 LINE"
);
},
{
closed = 1;
nodes = (
"175 478 LINE",
"275 446 LINE",
"275 27 LINE",
"175 58 LINE"
);
}
);
width = 451;
}
);
unicode = 0067;
},
{
glyphname = h;
lastChange = "2018-05-09 13:42:39 +0000";
layers = (
{
layerId = "5BFD6B79-E671-4341-8675-5B48D052A318";
name = Regular;
paths = (
{
closed = 1;
nodes = (
"175 900 LINE",
"175 500 LINE",
"375 500 LINE",
"375 0 LINE",
"275 0 LINE",
"275 446 LINE",
"175 478 LINE",
"175 0 LINE",
"75 0 LINE",
"76 931 LINE"
);
}
);
width = 450;
}
);
unicode = 0068;
},
{
glyphname = i;
lastChange = "2018-05-14 09:19:58 +0000";
layers = (
{
layerId = "5BFD6B79-E671-4341-8675-5B48D052A318";
name = Regular;
paths = (
{
closed = 1;
nodes = (
"75 0 LINE",
"175 0 LINE",
"175 446 LINE",
"75 478 LINE"
);
},
{
closed = 1;
nodes = (
"75 584 LINE",
"175 551 LINE",
"175 656 LINE",
"75 688 LINE"
);
}
);
width = 250;
}
);
unicode = 0069;
},
{
glyphname = iacute;
layers = (
{
layerId = "5BFD6B79-E671-4341-8675-5B48D052A318";
name = Regular;
paths = (
{
closed = 1;
nodes = (
"75 0 LINE",
"176 0 LINE",
"176 447 LINE",
"75 479 LINE"
);
},
{
closed = 1;
nodes = (
"160 556 LINE",
"221 746 LINE",
"126 776 LINE",
"65 586 LINE"
);
}
);
width = 250;
}
);
unicode = 00ED;
},
{
glyphname = icircumflex;
layers = (
{
layerId = "5BFD6B79-E671-4341-8675-5B48D052A318";
name = Regular;
paths = (
{
closed = 1;
nodes = (
"76 0 LINE",
"176 0 LINE",
"176 446 LINE",
"76 478 LINE"
);
},
{
closed = 1;
nodes = (
"36 491 LINE",
"-60 522 LINE",
"1 712 LINE",
"192 651 LINE",
"161 556 LINE",
"66 587 LINE"
);
}
);
width = 250;
}
);
unicode = 00EE;
},
{
glyphname = idieresis;
lastChange = "2018-05-09 13:43:44 +0000";
layers = (
{
layerId = "5BFD6B79-E671-4341-8675-5B48D052A318";
name = Regular;
paths = (
{
closed = 1;
nodes = (
"100 0 LINE",
"200 0 LINE",
"200 447 LINE",
"100 479 LINE"
);
},
{
closed = 1;
nodes = (
"200 552 LINE",
"300 520 LINE",
"300 625 LINE",
"200 656 LINE"
);
},
{
closed = 1;
nodes = (
"0 615 LINE",
"100 583 LINE",
"100 688 LINE",
"0 720 LINE"
);
}
);
width = 300;
}
);
unicode = 00EF;
},
{
glyphname = igrave;
layers = (
{
layerId = "5BFD6B79-E671-4341-8675-5B48D052A318";
name = Regular;
paths = (
{
closed = 1;
nodes = (
"76 0 LINE",
"176 0 LINE",
"176 446 LINE",
"76 478 LINE"
);
},
{
closed = 1;
nodes = (
"191 651 LINE",
"1 712 LINE",
"-30 617 LINE",
"161 556 LINE"
);
}
);
width = 250;
}
);
unicode = 00EC;
},
{
glyphname = j;
lastChange = "2018-05-09 13:43:14 +0000";
layers = (
{
layerId = "5BFD6B79-E671-4341-8675-5B48D052A318";
name = Regular;
paths = (
{
closed = 1;
nodes = (
"251 438 LINE",
"251 -377 LINE",
"-49 -377 LINE",
"-50 -201 LINE",
"50 -233 LINE",
"51 -338 LINE",
"151 -370 LINE",
"151 470 LINE"
);
},
{
closed = 1;
nodes = (
"151 680 LINE",
"251 650 LINE",
"251 543 LINE",
"151 575 LINE",
"151 579 LINE"
);
}
);
width = 326;
}
);
unicode = 006A;
},
{
glyphname = k;
lastChange = "2018-05-09 13:43:33 +0000";
layers = (
{
layerId = "5BFD6B79-E671-4341-8675-5B48D052A318";
name = Regular;
paths = (
{
closed = 1;
nodes = (
"127 931 LINE",
"227 898 LINE",
"227 500 LINE",
"227 400 LINE",
"262 400 LINE",
"343 651 LINE",
"438 621 LINE",
"367 400 LINE",
"427 400 LINE",
"427 0 LINE",
"327 0 LINE",
"328 341 LINE",
"227 374 LINE",
"227 0 LINE",
"127 0 LINE"
);
}
);
width = 513;
}
);
unicode = 006B;
},
{
glyphname = l;
lastChange = "2018-05-09 13:43:30 +0000";
layers = (
{
layerId = "5BFD6B79-E671-4341-8675-5B48D052A318";
name = Regular;
paths = (
{
closed = 1;
nodes = (
"75 0 LINE",
"173 -31 LINE",
"187 15 LINE",
"175 15 LINE",
"175 913 LINE",
"75 945 LINE"
);
}
);
width = 262;
}
);
unicode = 006C;
},
{
glyphname = m;
lastChange = "2018-05-09 13:43:59 +0000";
layers = (
{
layerId = "5BFD6B79-E671-4341-8675-5B48D052A318";
name = Regular;
paths = (
{
closed = 1;
nodes = (
"75 0 LINE",
"175 0 LINE",
"175 400 LINE",
"275 400 LINE",
"275 0 LINE",
"375 0 LINE",
"375 400 LINE",
"475 400 LINE",
"475 0 LINE",
"575 0 LINE",
"575 487 LINE",
"537 499 LINE",
"75 500 LINE"
);
}
);
width = 650;
}
);
unicode = 006D;
},
{
glyphname = n;
lastChange = "2018-05-09 13:44:03 +0000";
layers = (
{
layerId = "5BFD6B79-E671-4341-8675-5B48D052A318";
name = Regular;
paths = (
{
closed = 1;
nodes = (
"336 500 LINE",
"75 500 LINE",
"75 0 LINE",
"175 0 LINE",
"175 400 LINE",
"275 400 LINE",
"275 0 LINE",
"375 0 LINE",
"375 487 LINE"
);
}
);
width = 450;
}
);
unicode = 006E;
},
{
glyphname = o;
lastChange = "2018-05-09 13:44:07 +0000";
layers = (
{
layerId = "5BFD6B79-E671-4341-8675-5B48D052A318";
name = Regular;
paths = (
{
closed = 1;
nodes = (
"75 0 LINE",
"375 0 LINE",
"375 500 LINE",
"75 500 LINE"
);
},
{
closed = 1;
nodes = (
"175 58 LINE",
"175 478 LINE",
"275 446 LINE",
"275 26 LINE"
);
}
);
width = 450;
}
);
unicode = 006F;
},
{
glyphname = oacute;
layers = (
{
layerId = "5BFD6B79-E671-4341-8675-5B48D052A318";
name = Regular;
paths = (
{
closed = 1;
nodes = (
"75 -1 LINE",
"375 -1 LINE",
"375 498 LINE",
"75 498 LINE"
);
},
{
closed = 1;
nodes = (
"175 57 LINE",
"175 477 LINE",
"275 445 LINE",
"275 25 LINE"
);
},
{
closed = 1;
nodes = (
"252 556 LINE",
"313 747 LINE",
"218 777 LINE",
"157 586 LINE"
);
}
);
width = 450;
}
);
unicode = 00F3;
},
{
glyphname = ocircumflex;
lastChange = "2018-05-09 13:44:13 +0000";
layers = (
{
layerId = "5BFD6B79-E671-4341-8675-5B48D052A318";
name = Regular;
paths = (
{
closed = 1;
nodes = (
"83 -1 LINE",
"383 -1 LINE",
"383 498 LINE",
"83 498 LINE"
);
},
{
closed = 1;
nodes = (
"183 57 LINE",
"183 477 LINE",
"283 445 LINE",
"283 25 LINE"
);
},
{
closed = 1;
nodes = (
"171 584 LINE",
"75 614 LINE",
"136 805 LINE",
"327 744 LINE",
"296 649 LINE",
"201 679 LINE"
);
}
);
width = 458;
}
);
unicode = 00F4;
},
{
glyphname = odieresis;
lastChange = "2018-05-09 13:44:18 +0000";
layers = (
{
layerId = "5BFD6B79-E671-4341-8675-5B48D052A318";
name = Regular;
paths = (
{
closed = 1;
nodes = (
"75 0 LINE",
"375 0 LINE",
"375 500 LINE",
"75 500 LINE"
);
},
{
closed = 1;
nodes = (
"175 59 LINE",
"175 479 LINE",
"275 447 LINE",
"275 27 LINE"
);
},
{
closed = 1;
nodes = (
"75 600 LINE",
"75 700 LINE",
"175 700 LINE",
"175 600 LINE"
);
},
{
closed = 1;
nodes = (
"275 600 LINE",
"275 700 LINE",
"375 700 LINE",
"375 600 LINE"
);
}
);
width = 450;
}
);
unicode = 00F6;
},
{
glyphname = ograve;
layers = (
{
layerId = "5BFD6B79-E671-4341-8675-5B48D052A318";
name = Regular;
paths = (
{
closed = 1;
nodes = (
"83 -1 LINE",
"383 -1 LINE",
"383 498 LINE",
"83 498 LINE"
);
},
{
closed = 1;
nodes = (
"183 57 LINE",
"183 477 LINE",
"283 445 LINE",
"283 25 LINE"
);
},
{
closed = 1;
nodes = (
"296 652 LINE",
"106 713 LINE",
"75 618 LINE",
"266 557 LINE"
);
}
);
width = 458;
}
);
unicode = 00F2;
},
{
glyphname = oe;
lastChange = "2018-05-09 13:44:24 +0000";
layers = (
{
layerId = "5BFD6B79-E671-4341-8675-5B48D052A318";
name = Regular;
paths = (
{
closed = 1;
nodes = (
"575 500 LINE",
"275 500 LINE",
"275 0 LINE",
"575 0 LINE",
"575 204 LINE",
"475 236 LINE",
"475 26 LINE",
"375 58 LINE",
"375 300 LINE",
"575 300 LINE"
);
},
{
closed = 1;
nodes = (
"374 478 LINE",
"475 446 LINE",
"476 341 LINE",
"374 373 LINE"
);
},
{
closed = 1;
nodes = (
"75 0 LINE",
"375 0 LINE",
"375 500 LINE",
"75 500 LINE"
);
},
{
closed = 1;
nodes = (
"175 58 LINE",
"175 478 LINE",
"275 446 LINE",
"275 26 LINE"
);
}
);
width = 650;
}
);
unicode = 0153;
},
{
glyphname = p;
lastChange = "2018-05-09 13:44:28 +0000";
layers = (
{
layerId = "5BFD6B79-E671-4341-8675-5B48D052A318";
name = Regular;
paths = (
{
closed = 1;
nodes = (
"75 -435 LINE",
"175 -466 LINE",
"175 0 LINE",
"375 0 LINE",
"375 500 LINE",
"75 500 LINE"
);
},
{
closed = 1;
nodes = (
"175 57 LINE",
"175 478 LINE",
"275 446 LINE",
"275 26 LINE"
);
}
);
width = 450;
}
);
unicode = 0070;
},
{
glyphname = q;
lastChange = "2018-05-09 13:44:33 +0000";
layers = (
{
layerId = "5BFD6B79-E671-4341-8675-5B48D052A318";
name = Regular;
paths = (
{
closed = 1;
nodes = (
"75 0 LINE",
"275 0 LINE",
"275 -393 LINE",
"375 -425 LINE",
"375 500 LINE",
"75 500 LINE"
);
},
{
closed = 1;
nodes = (
"175 58 LINE",
"175 479 LINE",
"275 447 LINE",
"275 27 LINE"
);
}
);
width = 450;
}
);
unicode = 0071;
},
{
glyphname = r;
lastChange = "2018-05-09 13:44:53 +0000";
layers = (
{
layerId = "5BFD6B79-E671-4341-8675-5B48D052A318";
name = Regular;
paths = (
{
closed = 1;
nodes = (
"75 500 LINE",
"175 500 LINE",
"175 478 LINE",
"375 414 LINE",
"375 300 LINE",
"275 300 LINE",
"275 400 LINE",
"175 400 LINE",
"175 0 LINE",
"75 0 LINE"
);
}
);
width = 425;
}
);
unicode = 0072;
},
{
glyphname = s;
lastChange = "2018-05-09 13:44:41 +0000";
layers = (
{
layerId = "5BFD6B79-E671-4341-8675-5B48D052A318";
name = Regular;
paths = (
{
closed = 1;
nodes = (
"375 500 LINE",
"375 400 LINE",
"275 400 LINE",
"275 446 LINE",
"175 478 LINE",
"175 300 LINE",
"375 300 LINE",
"375 0 LINE",
"75 0 LINE",
"75 100 LINE",
"175 100 LINE",
"175 21 LINE",
"275 26 LINE",
"275 200 LINE",
"75 200 LINE",
"75 500 LINE"
);
}
);
width = 450;
}
);
unicode = 0073;
},
{
glyphname = t;
lastChange = "2018-05-09 13:45:15 +0000";
layers = (
{
layerId = "5BFD6B79-E671-4341-8675-5B48D052A318";
name = Regular;
paths = (
{
closed = 1;
nodes = (
"175 898 LINE",
"175 688 LINE",
"275 657 LINE",
"275 600 LINE",
"175 600 LINE",
"175 59 LINE",
"275 27 LINE",
"275 100 LINE",
"375 100 LINE",
"375 0 LINE",
"75 0 LINE",
"75 930 LINE"
);
}
);
width = 425;
}
);
unicode = 0074;
},
{
glyphname = u;
lastChange = "2018-05-09 13:45:00 +0000";
layers = (
{
layerId = "5BFD6B79-E671-4341-8675-5B48D052A318";
name = Regular;
paths = (
{
closed = 1;
nodes = (
"75 0 LINE",
"375 0 LINE",
"375 500 LINE SMOOTH",
"275 500 LINE",
"275 26 LINE",
"175 58 LINE",
"175 500 LINE",
"75 500 LINE"
);
}
);
width = 450;
}
);
unicode = 0075;
},
{
glyphname = uacute;
layers = (
{
layerId = "5BFD6B79-E671-4341-8675-5B48D052A318";
name = Regular;
paths = (
{
closed = 1;
nodes = (
"75 0 LINE",
"375 0 LINE",
"375 500 LINE SMOOTH",
"275 500 LINE",
"275 26 LINE",
"175 58 LINE",
"175 500 LINE",
"75 500 LINE"
);
},
{
closed = 1;
nodes = (
"252 556 LINE",
"313 747 LINE",
"218 777 LINE",
"157 586 LINE"
);
}
);
width = 450;
}
);
unicode = 00FA;
},
{
glyphname = ucircumflex;
layers = (
{
layerId = "5BFD6B79-E671-4341-8675-5B48D052A318";
name = Regular;
paths = (
{
closed = 1;
nodes = (
"75 0 LINE",
"375 0 LINE",
"375 500 LINE SMOOTH",
"275 500 LINE",
"275 26 LINE",
"175 58 LINE",
"175 500 LINE",
"75 500 LINE"
);
},
{
closed = 1;
nodes = (
"171 584 LINE",
"75 614 LINE",
"136 805 LINE",
"327 744 LINE",
"296 649 LINE",
"201 679 LINE"
);
}
);
width = 450;
}
);
unicode = 00FB;
},
{
glyphname = udieresis;
layers = (
{
layerId = "5BFD6B79-E671-4341-8675-5B48D052A318";
name = Regular;
paths = (
{
closed = 1;
nodes = (
"75 0 LINE",
"375 0 LINE",
"375 500 LINE SMOOTH",
"275 500 LINE",
"275 26 LINE",
"175 58 LINE",
"175 500 LINE",
"75 500 LINE"
);
},
{
closed = 1;
nodes = (
"75 600 LINE",
"75 700 LINE",
"175 700 LINE",
"175 600 LINE"
);
},
{
closed = 1;
nodes = (
"275 600 LINE",
"275 700 LINE",
"375 700 LINE",
"375 600 LINE"
);
}
);
width = 450;
}
);
unicode = 00FC;
},
{
glyphname = ugrave;
layers = (
{
layerId = "5BFD6B79-E671-4341-8675-5B48D052A318";
name = Regular;
paths = (
{
closed = 1;
nodes = (
"75 0 LINE",
"375 0 LINE",
"375 500 LINE SMOOTH",
"275 500 LINE",
"275 26 LINE",
"175 58 LINE",
"175 500 LINE",
"75 500 LINE"
);
},
{
closed = 1;
nodes = (
"296 652 LINE",
"106 713 LINE",
"75 618 LINE",
"266 557 LINE"
);
}
);
width = 450;
}
);
unicode = 00F9;
},
{
glyphname = v;
lastChange = "2018-05-09 13:45:20 +0000";
layers = (
{
layerId = "5BFD6B79-E671-4341-8675-5B48D052A318";
name = Regular;
paths = (
{
closed = 1;
nodes = (
"75 0 LINE",
"375 0 LINE",
"375 400 LINE",
"275 400 LINE",
"275 26 LINE",
"175 58 LINE",
"175 500 LINE",
"75 500 LINE"
);
}
);
width = 450;
}
);
unicode = 0076;
},
{
glyphname = w;
lastChange = "2018-05-09 13:45:25 +0000";
layers = (
{
layerId = "5BFD6B79-E671-4341-8675-5B48D052A318";
name = Regular;
paths = (
{
closed = 1;
nodes = (
"175 500 LINE",
"175 100 LINE",
"275 100 LINE",
"275 268 LINE",
"375 236 LINE",
"375 100 LINE",
"475 100 LINE",
"475 500 LINE",
"575 500 LINE",
"575 0 LINE",
"75 0 LINE",
"75 500 LINE"
);
}
);
width = 650;
}
);
unicode = 0077;
},
{
glyphname = x;
lastChange = "2018-05-09 13:45:47 +0000";
layers = (
{
layerId = "5BFD6B79-E671-4341-8675-5B48D052A318";
name = Regular;
paths = (
{
closed = 1;
nodes = (
"143 290 LINE",
"50 0 LINE",
"155 0 LINE",
"219 200 LINE",
"243 200 LINE",
"243 0 LINE",
"343 0 LINE",
"343 259 LINE",
"420 500 LINE",
"315 502 LINE",
"244 277 LINE",
"243 500 LINE",
"143 500 LINE"
);
}
);
width = 470;
}
);
unicode = 0078;
},
{
glyphname = y;
lastChange = "2018-05-09 13:45:35 +0000";
layers = (
{
layerId = "5BFD6B79-E671-4341-8675-5B48D052A318";
name = Regular;
paths = (
{
closed = 1;
nodes = (
"175 500 LINE",
"175 59 LINE",
"275 27 LINE",
"275 500 LINE",
"375 500 LINE",
"375 -400 LINE",
"75 -400 LINE",
"75 -119 LINE",
"175 -151 LINE",
"177 -362 LINE",
"275 -393 LINE",
"275 0 LINE",
"75 0 LINE",
"75 500 LINE"
);
}
);
width = 450;
}
);
unicode = 0079;
},
{
glyphname = z;
lastChange = "2018-05-09 13:45:39 +0000";
layers = (
{
layerId = "5BFD6B79-E671-4341-8675-5B48D052A318";
name = Regular;
paths = (
{
closed = 1;
nodes = (
"347 500 LINE",
"219 100 LINE",
"375 100 LINE",
"375 -400 LINE",
"75 -400 LINE",
"76 -120 LINE",
"175 -151 LINE",
"175 -362 LINE",
"275 -393 LINE",
"275 0 LINE",
"83 0 LINE",
"210 400 LINE",
"75 400 LINE",
"75 500 LINE"
);
}
);
width = 450;
}
);
unicode = 007A;
},
{
glyphname = zero;
lastChange = "2018-05-09 13:46:07 +0000";
layers = (
{
layerId = "5BFD6B79-E671-4341-8675-5B48D052A318";
name = Regular;
paths = (
{
closed = 1;
nodes = (
"75 0 LINE",
"375 0 LINE",
"375 800 LINE",
"75 800 LINE"
);
},
{
closed = 1;
nodes = (
"175 58 LINE",
"175 793 LINE",
"275 761 LINE",
"275 26 LINE"
);
}
);
width = 450;
}
);
unicode = 0030;
},
{
glyphname = one;
lastChange = "2018-05-09 13:46:10 +0000";
layers = (
{
layerId = "5BFD6B79-E671-4341-8675-5B48D052A318";
name = Regular;
paths = (
{
closed = 1;
nodes = (
"280 0 LINE",
"280 800 LINE",
"133 799 LINE",
"75 617 LINE",
"170 586 LINE",
"180 618 LINE",
"180 0 LINE"
);
}
);
width = 355;
}
);
unicode = 0031;
},
{
glyphname = two;
lastChange = "2018-05-09 13:46:14 +0000";
layers = (
{
layerId = "5BFD6B79-E671-4341-8675-5B48D052A318";
name = Regular;
paths = (
{
closed = 1;
nodes = (
"386 0 LINE",
"386 100 LINE",
"230 100 LINE",
"385 584 LINE",
"386 800 LINE",
"139 800 LINE",
"75 600 LINE",
"86 600 LINE",
"180 598 LINE",
"237 777 LINE",
"286 761 LINE",
"285 601 LINE",
"94 0 LINE"
);
}
);
width = 461;
}
);
unicode = 0032;
},
{
glyphname = three;
lastChange = "2018-05-09 13:46:34 +0000";
layers = (
{
layerId = "5BFD6B79-E671-4341-8675-5B48D052A318";
name = Regular;
paths = (
{
closed = 1;
nodes = (
"181 163 LINE",
"181 58 LINE",
"281 27 LINE",
"281 400 LINE",
"216 400 LINE",
"235 461 LINE",
"281 446 LINE",
"281 761 LINE",
"231 777 LINE",
"170 586 LINE",
"75 617 LINE",
"134 800 LINE",
"381 800 LINE",
"381 0 LINE",
"81 0 LINE",
"81 195 LINE"
);
}
);
width = 456;
}
);
unicode = 0033;
},
{
glyphname = four;
lastChange = "2018-05-09 13:46:21 +0000";
layers = (
{
layerId = "5BFD6B79-E671-4341-8675-5B48D052A318";
name = Regular;
paths = (
{
closed = 1;
nodes = (
"176 793 LINE",
"176 400 LINE",
"276 400 LINE",
"276 551 LINE",
"376 519 LINE",
"376 400 LINE",
"376 0 LINE",
"276 0 LINE",
"276 300 LINE",
"75 301 LINE",
"76 825 LINE"
);
}
);
width = 451;
}
);
unicode = 0034;
},
{
glyphname = five;
lastChange = "2018-05-09 13:46:30 +0000";
layers = (
{
layerId = "5BFD6B79-E671-4341-8675-5B48D052A318";
name = Regular;
paths = (
{
closed = 1;
nodes = (
"375 800 LINE",
"375 700 LINE",
"175 700 LINE",
"175 478 LINE",
"375 414 LINE",
"375 0 LINE",
"75 0 LINE",
"76 195 LINE",
"175 163 LINE",
"175 58 LINE",
"275 28 LINE",
"275 341 LINE",
"75 405 LINE",
"75 800 LINE"
);
}
);
width = 450;
}
);
unicode = 0035;
},
{
glyphname = six;
lastChange = "2018-05-09 13:46:37 +0000";
layers = (
{
layerId = "5BFD6B79-E671-4341-8675-5B48D052A318";
name = Regular;
paths = (
{
closed = 1;
nodes = (
"375 800 LINE",
"75 800 LINE",
"75 405 LINE",
"76 405 LINE",
"75 0 LINE",
"375 0 LINE",
"375 414 LINE",
"175 478 LINE",
"175 700 LINE",
"375 700 LINE"
);
},
{
closed = 1;
nodes = (
"275 28 LINE",
"175 58 LINE",
"175 373 LINE",
"275 341 LINE"
);
}
);
width = 450;
}
);
unicode = 0036;
},
{
glyphname = seven;
lastChange = "2018-05-09 13:46:58 +0000";
layers = (
{
layerId = "5BFD6B79-E671-4341-8675-5B48D052A318";
name = Regular;
paths = (
{
closed = 1;
nodes = (
"350 800 LINE",
"50 800 LINE",
"51 615 LINE",
"150 583 LINE",
"150 793 LINE",
"250 761 LINE",
"250 400 LINE",
"185 400 LINE",
"174 365 LINE",
"250 341 LINE",
"250 0 LINE",
"350 0 LINE"
);
}
);
width = 425;
}
);
unicode = 0037;
},
{
glyphname = eight;
lastChange = "2018-05-09 13:46:48 +0000";
layers = (
{
layerId = "5BFD6B79-E671-4341-8675-5B48D052A318";
name = Regular;
paths = (
{
closed = 1;
nodes = (
"75 0 LINE",
"375 0 LINE",
"375 800 LINE",
"75 800 LINE"
);
},
{
closed = 1;
nodes = (
"175 58 LINE",
"175 373 LINE",
"275 341 LINE",
"275 26 LINE"
);
},
{
closed = 1;
nodes = (
"175 478 LINE",
"175 793 LINE",
"275 761 LINE",
"275 446 LINE"
);
}
);
width = 450;
}
);
unicode = 0038;
},
{
glyphname = nine;
lastChange = "2018-05-09 13:46:53 +0000";
layers = (
{
layerId = "5BFD6B79-E671-4341-8675-5B48D052A318";
name = Regular;
paths = (
{
closed = 1;
nodes = (
"75 405 LINE",
"275 341 LINE",
"275 26 LINE",
"175 58 LINE",
"175 163 LINE",
"75 195 LINE",
"75 0 LINE",
"375 0 LINE",
"375 800 LINE",
"75 800 LINE"
);
},
{
closed = 1;
nodes = (
"175 478 LINE",
"175 793 LINE",
"275 761 LINE",
"275 446 LINE"
);
}
);
width = 450;
}
);
unicode = 0039;
},
{
glyphname = asterisk;
lastChange = "2018-05-14 09:50:17 +0000";
layers = (
{
layerId = "5BFD6B79-E671-4341-8675-5B48D052A318";
name = Regular;
paths = (
{
closed = 1;
nodes = (
"221 777 LINE",
"260 899 LINE",
"156 899 LINE",
"126 807 LINE",
"31 837 LINE",
"0 742 LINE",
"96 712 LINE",
"59 598 LINE",
"165 600 LINE",
"191 681 LINE",
"286 651 LINE",
"316 746 LINE"
);
}
);
width = 316;
}
);
unicode = 002A;
},
{
glyphname = colon;
lastChange = "2018-05-09 13:49:28 +0000";
layers = (
{
layerId = "5BFD6B79-E671-4341-8675-5B48D052A318";
name = Regular;
paths = (
{
closed = 1;
nodes = (
"75 400 LINE",
"75 500 LINE",
"175 500 LINE",
"175 400 LINE"
);
},
{
closed = 1;
nodes = (
"75 0 LINE",
"75 100 LINE",
"175 100 LINE",
"175 0 LINE"
);
}
);
width = 250;
}
);
unicode = 003A;
},
{
glyphname = comma;
lastChange = "2018-05-09 13:52:02 +0000";
layers = (
{
layerId = "5BFD6B79-E671-4341-8675-5B48D052A318";
name = Regular;
paths = (
{
closed = 1;
nodes = (
"243 0 LINE",
"180 -200 LINE",
"75 -200 LINE",
"138 0 LINE"
);
}
);
width = 318;
}
);
unicode = 002C;
},
{
glyphname = ellipsis;
lastChange = "2018-05-09 13:49:36 +0000";
layers = (
{
layerId = "5BFD6B79-E671-4341-8675-5B48D052A318";
name = Regular;
paths = (
{
closed = 1;
nodes = (
"75 0 LINE",
"75 100 LINE",
"175 100 LINE",
"175 0 LINE"
);
},
{
closed = 1;
nodes = (
"275 1 LINE",
"275 101 LINE",
"375 101 LINE",
"375 1 LINE"
);
},
{
closed = 1;
nodes = (
"475 1 LINE",
"475 101 LINE",
"575 101 LINE",
"575 1 LINE"
);
}
);
width = 650;
}
);
unicode = 2026;
},
{
glyphname = exclam;
lastChange = "2018-05-09 13:49:42 +0000";
layers = (
{
layerId = "5BFD6B79-E671-4341-8675-5B48D052A318";
name = Regular;
paths = (
{
closed = 1;
nodes = (
"175 866 LINE",
"175 200 LINE",
"75 200 LINE",
"75 898 LINE"
);
},
{
closed = 1;
nodes = (
"175 100 LINE",
"175 0 LINE",
"75 0 LINE",
"75 100 LINE"
);
}
);
width = 250;
}
);
unicode = 0021;
},
{
glyphname = period;
lastChange = "2018-05-09 13:49:50 +0000";
layers = (
{
layerId = "5BFD6B79-E671-4341-8675-5B48D052A318";
name = Regular;
paths = (
{
closed = 1;
nodes = (
"175 100 LINE",
"175 0 LINE",
"75 0 LINE",
"75 100 LINE"
);
}
);
width = 250;
}
);
unicode = 002E;
},
{
glyphname = question;
lastChange = "2018-05-09 13:49:11 +0000";
layers = (
{
layerId = "5BFD6B79-E671-4341-8675-5B48D052A318";
name = Regular;
paths = (
{
closed = 1;
nodes = (
"175 583 LINE",
"175 898 LINE",
"275 866 LINE",
"275 400 LINE",
"175 400 LINE",
"175 268 LINE",
"275 237 LINE",
"275 342 LINE",
"375 310 LINE",
"375 900 LINE",
"75 900 LINE",
"76 615 LINE"
);
},
{
closed = 1;
nodes = (
"175 0 LINE",
"175 100 LINE",
"275 100 LINE",
"275 0 LINE"
);
}
);
width = 450;
}
);
unicode = 003F;
},
{
glyphname = quotesingle;
lastChange = "2018-05-09 13:49:55 +0000";
layers = (
{
layerId = "5BFD6B79-E671-4341-8675-5B48D052A318";
name = Regular;
paths = (
{
closed = 1;
nodes = (
"75 800 LINE",
"127 800 LINE",
"127 600 LINE",
"227 600 LINE",
"227 900 LINE",
"107 900 LINE"
);
}
);
width = 302;
}
);
unicode = 0027;
},
{
glyphname = semicolon;
lastChange = "2018-05-09 13:50:00 +0000";
layers = (
{
layerId = "5BFD6B79-E671-4341-8675-5B48D052A318";
name = Regular;
paths = (
{
closed = 1;
nodes = (
"158 0 LINE",
"158 100 LINE",
"258 100 LINE",
"258 0 LINE"
);
},
{
closed = 1;
nodes = (
"243 -100 LINE",
"180 -300 LINE",
"75 -300 LINE",
"138 -100 LINE"
);
}
);
width = 333;
}
);
unicode = 003B;
},
{
glyphname = slash;
lastChange = "2018-05-14 09:46:49 +0000";
layers = (
{
layerId = "5BFD6B79-E671-4341-8675-5B48D052A318";
name = Regular;
paths = (
{
closed = 1;
nodes = (
"392 900 LINE",
"105 0 LINE",
"0 0 LINE",
"287 900 LINE"
);
}
);
width = 392;
}
);
unicode = 002F;
},
{
glyphname = underscore;
lastChange = "2018-05-14 09:43:50 +0000";
layers = (
{
layerId = "5BFD6B79-E671-4341-8675-5B48D052A318";
name = Regular;
paths = (
{
closed = 1;
nodes = (
"0 -200 LINE",
"0 -100 LINE",
"500 -100 LINE",
"500 -200 LINE"
);
}
);
width = 500;
}
);
unicode = 005F;
},
{
glyphname = bracketleft;
lastChange = "2018-05-09 13:49:17 +0000";
layers = (
{
layerId = "5BFD6B79-E671-4341-8675-5B48D052A318";
name = Regular;
paths = (
{
closed = 1;
nodes = (
"275 834 LINE",
"275 730 LINE",
"175 761 LINE",
"175 132 LINE",
"275 100 LINE",
"275 -5 LINE",
"75 58 LINE",
"75 898 LINE"
);
}
);
width = 350;
}
);
unicode = 005B;
},
{
glyphname = bracketright;
lastChange = "2018-05-09 13:50:08 +0000";
layers = (
{
layerId = "5BFD6B79-E671-4341-8675-5B48D052A318";
name = Regular;
paths = (
{
closed = 1;
nodes = (
"75 793 LINE",
"175 761 LINE",
"175 27 LINE",
"75 59 LINE",
"75 -46 LINE",
"275 -110 LINE",
"275 834 LINE",
"75 900 LINE"
);
}
);
width = 350;
}
);
unicode = 005D;
},
{
glyphname = emdash;
lastChange = "2018-05-09 13:50:13 +0000";
layers = (
{
layerId = "5BFD6B79-E671-4341-8675-5B48D052A318";
name = Regular;
paths = (
{
closed = 1;
nodes = (
"75 200 LINE",
"75 300 LINE",
"575 300 LINE",
"575 200 LINE"
);
}
);
width = 650;
}
);
unicode = 2014;
},
{
glyphname = endash;
lastChange = "2018-05-19 18:34:04 +0000";
layers = (
{
layerId = "5BFD6B79-E671-4341-8675-5B48D052A318";
name = Regular;
paths = (
{
closed = 1;
nodes = (
"75 200 LINE",
"75 300 LINE",
"376 300 LINE",
"376 200 LINE"
);
}
);
width = 451;
}
);
unicode = 2013;
},
{
glyphname = hyphen;
lastChange = "2018-05-09 13:50:17 +0000";
layers = (
{
layerId = "5BFD6B79-E671-4341-8675-5B48D052A318";
name = Regular;
paths = (
{
closed = 1;
nodes = (
"75 200 LINE",
"75 300 LINE",
"376 300 LINE",
"376 200 LINE"
);
}
);
width = 451;
}
);
unicode = 002D;
},
{
glyphname = guillemetleft;
lastChange = "2018-05-09 13:50:22 +0000";
layers = (
{
layerId = "5BFD6B79-E671-4341-8675-5B48D052A318";
name = Regular;
paths = (
{
closed = 1;
nodes = (
"169 600 LINE",
"195 682 LINE",
"175 688 LINE",
"175 900 LINE",
"75 900 LINE",
"75 600 LINE"
);
},
{
closed = 1;
nodes = (
"275 600 LINE",
"379 600 LINE",
"386 621 LINE",
"411 700 LINE",
"375 700 LINE",
"375 900 LINE",
"275 900 LINE"
);
}
);
width = 486;
}
);
unicode = 00AB;
},
{
glyphname = guillemetright;
lastChange = "2018-05-09 13:50:26 +0000";
layers = (
{
layerId = "5BFD6B79-E671-4341-8675-5B48D052A318";
name = Regular;
paths = (
{
closed = 1;
nodes = (
"75 800 LINE",
"127 800 LINE",
"127 600 LINE",
"227 600 LINE",
"227 900 LINE",
"107 900 LINE"
);
},
{
closed = 1;
nodes = (
"317 900 LINE",
"427 900 LINE",
"427 600 LINE",
"327 600 LINE",
"327 800 LINE",
"285 800 LINE"
);
}
);
width = 502;
}
);
unicode = 00BB;
},
{
glyphname = asciicircum;
lastChange = "2018-05-14 09:51:22 +0000";
layers = (
{
layerId = "5BFD6B79-E671-4341-8675-5B48D052A318";
name = Regular;
paths = (
{
closed = 1;
nodes = (
"170 587 LINE",
"75 617 LINE",
"136 807 LINE",
"326 747 LINE",
"296 651 LINE",
"201 682 LINE"
);
}
